# xmcd
#
# Track frame offsets: 
#        183
#        23525
#        39513
#        64113
#        78468
#        101198
#        117968
#        142838
#        159660
#        175575
#        212203
#
# Disc length: 3057 seconds
#
# Revision: 0
# Processed by: cddbd v1.4PL0 Copyright (c) Steve Scherf et al.
# Submitted via: ExactAudioCopy v0.90b3
#
DISCID=8c0bef0b
DTITLE=Ted Hawkins - I Love You Too
DYEAR=1989
DGENRE=Blues
TTITLE0=Who Do You Love
TTITLE1=Dollar Tree
TTITLE2=You've Changed
TTITLE3=I Ain't Got Nothing Yet
TTITLE4=Nowhere To Run
TTITLE5=Baby
TTITLE6=Nursery Rhymes
TTITLE7=No Love
TTITLE8=Ladder Of Success
TTITLE9=Ding Dong Ding
TTITLE10=Baby (Alt. Mix)
EXTD=
EXTT0=
EXTT1=
EXTT2=
EXTT3=
EXTT4=
EXTT5=
EXTT6=
EXTT7=
EXTT8=
EXTT9=
EXTT10=
PLAYORDER=
